/* XPM */
static char *_296cc2391ae4ad1f77b870d1fdfb451oXxlrGZcQQSY6rEk[] = {
/* columns rows colors chars-per-pixel */
"64 64 245 2 ",
"   c #0F0B0C",
".  c #160F06",
"X  c #170E08",
"o  c #191107",
"O  c #191C07",
"+  c #1B1309",
"@  c #170B13",
"#  c #2A0D05",
"$  c #271907",
"%  c #321804",
"&  c #241612",
"*  c #291E11",
"=  c #0A2A13",
"-  c #1B2412",
";  c #222512",
":  c #2C2212",
">  c #292717",
",  c #312513",
"<  c #3A2B16",
"1  c #2C3011",
"2  c #39341A",
"3  c #312E29",
"4  c #561308",
"5  c #571C12",
"6  c #72160D",
"7  c #641A11",
"8  c #562C12",
"9  c #453713",
"0  c #43331B",
"q  c #642C04",
"w  c #6B2B06",
"e  c #7B2508",
"r  c #642B16",
"t  c #52332E",
"y  c #7B3924",
"u  c #1A5138",
"i  c #234E30",
"p  c #4C4D11",
"a  c #6C570F",
"s  c #5C6C0C",
"d  c #766C0E",
"f  c #637C04",
"g  c #6D6412",
"h  c #667611",
"j  c #574C2B",
"k  c #5A5531",
"l  c #6C4D2B",
"z  c #665528",
"x  c #725529",
"c  c #655534",
"v  c #665932",
"b  c #6A5C34",
"n  c #5C6933",
"m  c #71742D",
"M  c #696337",
"N  c #726237",
"B  c #766739",
"V  c #7C6C3C",
"C  c #233857",
"Z  c #2D4555",
"A  c #1E6A50",
"S  c #05785B",
"D  c #314F68",
"F  c #515156",
"G  c #585959",
"H  c #684F53",
"J  c #4B744C",
"K  c #797343",
"L  c #737148",
"P  c #4F5868",
"I  c #516C70",
"U  c #6F6F6F",
"Y  c #716A71",
"T  c #9C0505",
"R  c #960711",
"E  c #861511",
"W  c #941212",
"Q  c #981111",
"!  c #A20401",
"~  c #A40709",
"^  c #B50206",
"/  c #A40E10",
"(  c #AC0B10",
")  c #B40E11",
"_  c #B90F11",
"`  c #A21111",
"'  c #A91111",
"]  c #B61111",
"[  c #B81111",
"{  c #8A2E0E",
"}  c #833407",
"|  c #8D3808",
" . c #9B3401",
".. c #A42B04",
"X. c #A33608",
"o. c #8F1C23",
"O. c #961622",
"+. c #902F26",
"@. c #C6050B",
"#. c #C80E11",
"$. c #874D1D",
"%. c #A5450D",
"&. c #B4460A",
"*. c #945028",
"=. c #B25836",
"-. c #866A39",
";. c #82713E",
":. c #947138",
">. c #B1753A",
",. c #C75E34",
"<. c #C2673B",
"1. c #964F4F",
"2. c #857442",
"3. c #897743",
"4. c #83714B",
"5. c #887848",
"6. c #917D46",
"7. c #987C45",
"8. c #B66D63",
"9. c #C0676D",
"0. c #6C8804",
"q. c #6F860F",
"w. c #788703",
"e. c #69930D",
"r. c #77950A",
"t. c #6C8410",
"y. c #738D10",
"u. c #7D821E",
"i. c #7A9313",
"p. c #4F8C2E",
"a. c #6C8A2F",
"s. c #24845B",
"d. c #0C8868",
"f. c #1C8B69",
"g. c #08986A",
"h. c #079875",
"j. c #139874",
"k. c #0DA06A",
"l. c #06A479",
"z. c #6F8F4A",
"x. c #4B8376",
"c. c #908F13",
"v. c #99B703",
"b. c #87A315",
"n. c #8CAB14",
"m. c #8BB711",
"M. c #91B014",
"N. c #97BC14",
"B. c #BEAF04",
"V. c #899139",
"C. c #AD9526",
"Z. c #B2AB34",
"A. c #C7B904",
"S. c #D0BE00",
"D. c #98C312",
"F. c #A2C608",
"G. c #CBC200",
"H. c #DBCA09",
"J. c #EBDA08",
"K. c #F7E80A",
"L. c #968249",
"P. c #99864B",
"I. c #9E894D",
"U. c #8E904F",
"Y. c #A18C4F",
"T. c #B5914D",
"R. c #A38E50",
"E. c #A69051",
"W. c #AB9554",
"Q. c #B39956",
"!. c #B69E59",
"~. c #91A359",
"^. c #ADA953",
"/. c #BCA35C",
"(. c #8D9676",
"). c #A39E64",
"_. c #AF9E6D",
"`. c #B09F6D",
"'. c #9CA766",
"]. c #B2A06C",
"[. c #BBA868",
"{. c #AEB267",
"}. c #BAA875",
"|. c #C3A65D",
" X c #C2A85F",
".X c #DAB65A",
"XX c #C39F6C",
"oX c #C3AA63",
"OX c #C9AF63",
"+X c #CBA76C",
"@X c #CBB164",
"#X c #CAB769",
"$X c #D2B667",
"%X c #D5B969",
"&X c #D8BA6A",
"*X c #CAAE70",
"=X c #C5B376",
"-X c #E6B764",
";X c #D7CD55",
":X c #D4C36F",
">X c #DEC26E",
",X c #D2CB73",
"<X c #E1C46F",
"1X c #E8CA72",
"2X c #245C9F",
"3X c #1B7D88",
"4X c #1C5BA9",
"5X c #1C57B2",
"6X c #275FA2",
"7X c #2A56A9",
"8X c #1F60B0",
"9X c #2668B8",
"0X c #366EB1",
"qX c #3A71B5",
"wX c #605481",
"eX c #615C90",
"rX c #546882",
"tX c #5F6A89",
"yX c #4377B9",
"uX c #4278BE",
"iX c #165EC3",
"pX c #3B7BC7",
"aX c #3979D2",
"sX c #4577C2",
"dX c #457CC2",
"fX c #407BD4",
"gX c #1A9283",
"hX c #148291",
"jX c #08A783",
"kX c #65A599",
"lX c #3787D5",
"zX c #328FEB",
"xX c #4485D6",
"cX c #468CE3",
"vX c #918F8D",
"bX c #8E9595",
"nX c #96999B",
"mX c #8B93A4",
"MX c #98A8AD",
"NX c #A9A5A8",
"BX c #CDC9A0",
"VX c #BEC0D7",
"CX c #C4C5C4",
"ZX c #CCCDD6",
"AX c #D5D4E4",
/* pixels */
"L.P.I.I.I.I.I.I.I.6.2.3.3.3.3.3.3.3.3.3.V N N N V 2.;.2.P.Y.I.I.I.I.I.P.L.P.P.5.K K 2.K K K 2.3.3.3.3.3.3.2.L.Y.I.I.P.L.L.L.I.I.",
"/. X%X$X$X$X$X$X$X%X%X%X%X%X%X%X%X%X%X<X!.;.3.2.W.OX X X$X%X$X$X$X$X%X*X}.}.}.}.}.}.}.}.}.}.}.%X%X%X%X%X%X%X%X$X$X%XoX/././.$X$X",
"!./.@X@X@XOXOXOXOXOXOXOXOXOXOXOXOXOXOX%XW.V 2.;.E./.!.!.OXOXOXOXOXOX@XoX_.].].].].].].`.]._.].@X@X@X@XOXOX@XOXOXOX@X/.!.!./.OX@X",
"!./.@X@XOX%X<X>X>X>X>X>X>X>X>X>X>X>X>X1X/.3.L.3.!.$XOXOX&X<X>X>X>X>X<X&X=X=X=X=X=X=X=X=X=X=X=X.X.X.X.X.X.X.X&X>X>X<X XQ.!./.@X@X",
"!./. X X@XW.3.6.6.6.6.6.6.6.6.6.6.6.6.L.;.c v c V 3.2.2.6.6.6.6.6.6.6.5.4.4.4.4.4.4.4.4.4.4.5.vXvXvX(.(.(.vXU.7.6.6.W./.!./.oXoX",
"!.!.!.!.@Xb   + + + + + + + + + + + + + + & & & + + + + + + + + + + + + + + + + + + + $ $ # > pXaXpX9X4X4XiXC # + . 6.@X!.!.!.!.",
"!.!.!.!.@XN . : : : : : : : : : : : : : : : : : : : : : : : : : : : : : : : : : : : : : , % 3 yXdXdXqX2X6X9XZ % : & L.OX!.!.!.!.",
"!.!.!.!.OXN . : : * * * * * * * ; - - - - - - - ; * * * * * * * : : : &   @ @ @ @ @ @ * , % 3 yXdXdXqX2X6X9XZ % : & L.OX!.!.!.!.",
"!./././.%XB . : : , , , , , , , < 7 7 7 5 5 5 5 < , , , , , , , : : * 9 d g g a a a a < : % 3 yXdXdXqX6X6X9XZ % : & L.OX!.!././.",
"!./.@X@X1X;.o : : 2 0 0 0 0 0 2 r #.#.#._ / / ) r 2 0 0 0 0 0 0 , , @ d K.J.K.H.G.H.H.p & % 3 yXdXdXqX6X6X9XZ % : & L.OX!./.@X@X",
"!./.@XOX<X;.o , , < 0 0 0 0 0 2 8 _ [ [ ' W Q / r 2 0 0 0 0 0 2 , , @ g J.H.H.A.B.A.A.p & % 3 yXdXdXqX2X6X9XZ % : & L.OX!./.OX@X",
"/.oX%X$X1XV   ; - , 2 2 2 2 2 2 8 _ [ [ ' W Q / r 2 0 0 0 0 0 < & & @ a J.H.H.S.A.S.S.p @ O 3 yXdXdXqX2X6X9XC # % # P.#X/./.$X%X",
"R.E.Q.Q.[.-.5 8 8 8 8 8 8 8 8 9 r _ [ [ ' W Q / 5 1 < < 0 0 0 0 p p 1 m ;X;X;X^.Z.Z.Z.r 4 4 t yXdXdXqX2X6X9XD i i u L.Q.R.E.W.Q.",
";.;.V V K *.&.&.&. .} | | w w w e _ [ [ ' W Q / 5 ; : : 2 0 < p i.y.0.~.VXVXZXMXvXmXmX+.! ~ O.yXpXdXqX2X6X7XhXl.l.jXL :.;.V V V ",
"2.2.2.2.5.*.X.%.%.| } } } w w q e _ ] [ ' W Q / 5 ; , , < 0 < p q.y.f ~.ZXCXCXNXvXbXbX+.T T o.yXpXdXqX2X6X7X3Xk.j.h.L :.2.2.2.2.",
"V V V V K *.X.%.%.| } } } w w q e _ [ [ ' W Q ` 4 O % % 0 0 0 p q.y.f ~.ZXCXCXNXvXbXbX+.T T o.yXpXdXqX2X6X7X3Xk.j.h.L -.V V V V ",
"R.Y.R.R.W.:.X.%.%.| } } } w w q e _ [ [ ' W Q ~ t D Z Z 2 < , 9 t.q.f U.ZXCXCXNXvXbXbX+.T T o.yXpXdXqX2X6X7X3Xk.j.h.z.T.R.R.Y.Y.",
"%X%X%X$X,XC. .%.%.| } } } w w q e _ [ [ ' W Q ! eXzXcXxX3 % * 2 q.y.f ~.ZXCXCXNXvXbXbX+.T T o.yXpXdXqX2X6X7X3Xk.j.h.{.-X$X$X$X$X",
"@X@XOXOX%X>. .%.%.| } } } w w q e _ [ [ ' W Q ! wXlXdXuX3 % * 2 q.y.f ~.ZXCXCXNXvXbXbX+.T T o.yXpXdXqX2X6X7X3Xk.j.h.'.-XOXOXOXOX",
"@X@X@X@X:X>. .%.%.| } } } w w q e _ [ [ ' W Q ! wXlXdXuX3 # @ < i.i.0.~.AXVXVXMXmXmXmX+.T T o.yXpXdXqX2X6X7X3Xk.j.h.'.-X@X@X@X@X",
"oXoXoXoX=X>. .%.%.| } } } w w q e _ [ [ ' W Q ! wXlXsXuXj p p p s s p V.BX,X,X{.R.).).+.T T o.yXpXdXqX2X6X7X3Xk.j.h.'.@XoXoXoXoX",
"_._._._.}.>.X.%.%.| } } } w w q e _ [ [ ' W Q ! wXlXsXuXa.r.r.h & & @ a J.H.H.S.A.A.S.X.R T o.yXpXdXqX2X6X7X3Xk.j.h.(.XX_._._._.",
"].].].].}.>.X.%.%.| } } } w w q e _ [ [ ' W Q ! wXlXsXuXa.0.y.h : , @ g J.H.H.A.B.A.A. .R T o.yXpXdXqX2X6X7X3Xk.h.h.(.+X].].].].",
"_._._._.}.>.X.%.%.| } } } w w q e _ [ [ ' W Q ! wXlXsXuXa.0.y.h : , @ g J.H.H.A.B.A.A. .R T o.yXpXdXqX2X6X7X3Xk.h.h.(.XX_._._._.",
"[.[.[.[.=X>. .%.%.| } } } w w q e _ [ [ ' W W ! wXlXsXuXa.0.y.h : : @ g J.H.H.A.B.A.A.X.R T o.yXpXdXqX2X6X7X3Xg.j.h.'.+X[.[.[.[.",
"@X@X@X@X:X>. .%.%.| } } } w w q e _ [ [ ' W W ! wXlXsXuXa.0.y.h : : @ g J.H.H.A.B.A.A.X.R T o.yXpXdXqX2X6X7X3Xk.j.h.'.-X@X@X@X@X",
"OXOXOXOX%X>. .%.%.| } } } w w q e [ [ [ ' W W ! wXlXsXuXa.0.y.h : , @ g J.H.H.A.B.A.A.X.R T o.yXpXdXqX2X6X7X3Xk.j.h.'.-XOXOXOXOX",
"$X$X%X%X,X<...X.X.| } } } w q q e @.@.@.( R T ! wXzXaXaXa.w.r.f $ $   a K.J.J.G.A.S.G...R ! O.pXlXxXpX4X5X5XhXl.h.h.'.-X$X$X%X%X",
"W.W.E.E.W.:.$.*.*.$.x x x x x x x +.+.+.+.+.+.{ Y kXtXtXm h h g j j t m Z.Z.Z.C.C.C.C.*.+.+.+.I rXrXI I I I I s.s.s.U.Q.W.W.E.E.",
"V V N N N B K K K K K K K 6.6.L.K n n n n M M n V :.:.:.b c c b 6.6.L.5.L K K K K K K K K K V z z z x -.-.-.-.-.-.-.V V V V N N ",
"2.2.V V V V V V V V V V V 2.3.3.;.v v v v v v c V 3.3.3.b v v b 2.3.2.2.2.2.2.2.2.2.2.V V V V b b v b V V V V V V V 2.2.2.2.V V ",
";.V b N N N N N N N N N N V ;.;.B j j j j j j j N ;.V V k j j c ;.;.V V V V V V V V V N b N b j j j k N b b b b b b V ;.V V N b ",
"I.I.Y.Y.Y.P.L.L.L.L.L.L.L.I.I.I.P.3.3.3.6.L.L.L.Y.E.E.E.6.5.5.6.I.I.I.Y.E.E.E.E.E.E.E.Y.I.Y.I.L.L.L.P.Y.Y.Y.Y.Y.Y.Y.I.I.I.I.I.Y.",
"/.oX&X%X&X@X/. X X X X X X/././. XoXoX X@X&X&X&X%X%X%X%X=X}.}.}./././.OX%X%X%X%X%X%X%X%X%X%X%X&X&X&X&X%X%X%X%X%X%X&XoX/./. X%X%X",
"!./.@XOX@X/.Q.!.!.!.!.!.!.!.!.!.!.!.!.Q./.@XOXOXOXOX@XOX].`.].].!.!.!./.@XOXOXOXOXOXOXOXOXOXOXOXOXOXOXOXOXOXOXOXOX@X/.!.!./.OX@X",
"!./.@XOXOX@X@X@X@X@X@X@X@X@X@X@X@X@X@XOX%X<X>X<X%X*X*X*X}.}.}.}.@X@XOX%X<X>X>X>X>X>X>X>X>X>X>X>X>X>X>X>X>X>X>X>X>X<X XQ.!./.OX@X",
"!./.@XOX%XY.v N N N N N N N N N N N N N B V V B V.Z.Z.Z.U.U.U.V.N N N B V V V V V V V V V V V V V V V V V V V V V B E./.!.!.OX@X",
"!./.@XOX1XN   o o o o o o o o o o o o o o . .   f D.n.n.0.f 0.s X X + o . . . . . . . . . . . . . . . . . X X X .   6.@X!.!.OX@X",
"!./.@XOX<XV . : : : : : : : : : : : : : : : : & h N.M.n.y.t.y.h : * : : : : : : : : : : : : : : : : : : : : : : * $ L.OX!./.OX@X",
"!./.@XOX<XB   - - - - - - : : : * # # # $ $ $ # h N.M.M.y.t.y.h * * : : : : : : : : : & @ @ @ & & & & : : : : : * + L.OX!./.OX@X",
"!./.@XOX:X:.4 6 6 7 7 7 7 , ; $ 3 D D D D C Z C a.v.n.n.y.t.y.h : * : : : : : : : : * p h s s p p p p * : : : : : & L.OX!./.OX@X",
"!./.@XOX,X<.@.#.#.) / ( / , ; $ 3 cXcXcXpX8X9XiXz.v.n.n.y.t.y.h : : , , , , , , , : * b.F.D.N.i.y.b.h & : , , , : & L.OX!./.OX@X",
"!./.@XOX,X>.^ ] [ ` W Q W , ; $ 3 dXdXdX0X2X6X5Xz.v.n.n.y.t.y.h : : , , , , , , , : * i.N.M.n.q.t.i.s * : : : , : & L.OX!./.OXOX",
"/.oX&X%X,X,.^ ^ ^ ! T T T % # # 3 xXdXdX0X6X6X5Xz.v.n.n.y.t.y.h - - - ; ; ; ; > , : * i.N.M.n.q.t.i.s # % % % % % # P.$X/./.%X&X",
"I.I.L.L.P.8.9.8.9.1.1.1.1.A u u A dXsXdX0X2X6X5Xz.v.n.n.y.t.e.h 6 6 6 6 7 7 7 5 > : * i.N.M.n.q.q.w.h A A A u u u u 5.T.I.I.L.L.",
"2.B j j 9 (.AXZXAXMXbXnXbXjXl.l.gXsXuXdX0X2X6X5Xz.v.n.n.y.q.e.d #.#.#._ / / ) 7 ; : * i.N.M.n.q.q.w.p.jXl.jXh.d.d.d.L :.2.V k j ",
"3.V c v j (.ZXCXCXnXvXvXvXj.g.g.gXsXuXdX0X2X6X5Xz.v.n.n.y.q.e.d ] ] [ ' W Q / 5 ; : * i.N.M.n.q.q.w.p.h.j.j.d.S S S L :.3.2.b v ",
"2.B j j 9 vXAXZXAXMXbXMXmXj.g.g.gXsXuXdX0X2X6X5Xa.F.v.v.r.0.e.d ] ] [ ' W Q / 5 ; : * i.N.M.n.q.q.w.p.g.g.g.d.S S S J -.V V j j ",
"W.E.P.P.P.8.9.8.9.1.1.1.1.f.h.g.gXsXuXdX0X2X6X4XU V.z.z.M M n b ] ] [ ' W Q / 5 ; : * i.N.M.n.t.t.0.a.kXkXkXkXx.x.x.U.T.W.W.I.P.",
"$X%X&X&X1X,.^ ^ ^ T T ! T f.l.g.gXsXuXdX0X2X6X4XrXY Y Y P F P H [ _ [ ' W Q / 5 ; : * i.N.M.n.t.t.f U.AXZXAXNXvXnXnX*X&X%X%X&X&X",
"OXOXOXOX,X=.^ [ [ Q W ~ W f.l.g.gXsXuXdX0X2X6X4XI U U U G F P H [ _ [ ' W Q / 5 ; : * i.N.M.n.t.t.f U.ZXCXCXNXvXvXvX[.@XOXOXOXOX",
"@X@X@X@X,X<.^ [ [ ` W T W f.l.g.gXsXuXdX0X2X6X4XI U U U G F P H #.#.#.) W W / 5 = - - i.N.M.n.t.t.f U.AXZXAXNXvXnXnXXX@X@X@X@X@X",
" X X X X#X=.^ ] [ ` W ~ W f.l.g.gXsXuXdX0X2X6X6XrXU U U G F G F 7 6 7 E ' ' ' E 7 7 7 c.N.M.n.t.t.0.a.kXkXkXkXI x.x.).|. X X X X",
"!.!.!.!.{.=.^ ] [ ` W ~ W f.l.g.gXsXuXdX0X2X6X4XrXU U U G F G F - - = 5 #.[ [ ( / ( ( c.m.M.n.q.t.w.p.g.g.g.d.S S S U.|.!.!.!.!.",
"/.!.!.!.{.=.^ ] [ ` W ~ W f.l.g.gXsXuXdX0X2X6X4XrXU U U G F G F : : ; 7 #.[ [ ' W Q R c.m.M.n.q.t.w.p.h.j.j.d.S S S ~.|.!.!.!.!.",
"!.!.!.!.{.=.^ [ [ ` W ~ W f.l.g.gXsXuXdX0X2X6X4XrXY Y Y P F P F : : - 7 #.[ [ ' W Q R c.m.M.n.q.t.w.p.h.j.j.d.S S S ~.|.!.!.!.!.",
" X X X X#X=.^ [ [ ` W T W f.l.g.gXsXuXdX0X2X6X4Xz.V.V.a.m n m n : : - 7 #.[ [ ' W Q R c.m.M.n.q.t.w.p.h.j.j.d.S S S ~..X X X X X",
"@X@X@X@X,X<.^ [ [ ` W T W f.l.g.gXsXuXdX0X2X6X5Xa.F.v.v.r.0.r.f : : - 7 #.[ [ ' W Q R c.m.M.n.q.t.w.p.h.j.j.d.S S S '.-X@X@X@X@X",
"OXOXOXOX,X<.^ [ [ Q W T W f.l.g.gXsXuXdX0X2X6X5Xz.v.n.n.y.t.y.h , , - 7 #.[ [ / W Q R c.m.M.n.q.t.w.p.h.j.j.d.S S S '.-XOXOXOXOX",
"$X$X$X$X,X<.^ ^ ^ ~ R ~ Q j.jXl.gXfXaXxXpX4X8X5Xz.F.N.N.y.t.r.f & & O 4 @.^ ^ ( R T T c.D.N.M.y.q.w.p.jXh.l.d.S S S '.-X$X$X$X$X",
"R.R.R.R.W.:.*.*.*.+.y y y J J J J I I I P P P P M u.m m m m V.m c c k x *.*.*.+.y y y m u.m m m m g n J J J J J J J U.W.R.R.R.R.",
"V V V V V K U.U.U.M n M M x x x x z z z x x x x c c c c 4.5.5.5.L.L.6.L.z.z.U.B n M M c c c c c c c c x x l -.7.:.:.;.V V V V V ",
"2.2.2.2.2.2.2.3.3.N v b b b b b b b b b b v v b b v v v ;.3.2.3.2.2.2.2.2.2.3.B v b b b v b b v b b b b b c B 3.2.2.2.2.2.2.2.2.",
"2.2.2.2.2.2.2.2.3.N c v v v v v v v v v v v v v v v c v ;.2.2.2.2.2.2.2.2.2.3.N c v v v v v v v v v v v v k B 3.2.2.2.2.2.2.2.2."
};
