/* XPM */
static char *ed0518532da74f2cbef9b69ced9a24e1dJuvK4UOeJKOTLqb[] = {
/* columns rows colors chars-per-pixel */
"64 64 7 1 ",
"  c black",
". c #202000",
"X c #0CFF00",
"o c #FFFC00",
"O c #0006FF",
"+ c #C600FF",
"@ c white",
/* pixels */
"X      O+@@@@@@oX      O+@@@@@@oX      O+@@@@@@oX      O+@@@@@@o",
"X      O+@@@@@@oX      O+@@@@@@oX      O+@@@@@@oX      O+@@@@@@o",
"X      O+@@@@@@oX      O+@@@@@@oX      O+@@@@@@oX      O+@@@@@@o",
"X      O+@@@@@@oX      O+@@@@@@oX      O+@@@@@@oX      O+@@@@@@o",
"X      O+@@@@@@oX      O+@@@@@@oX      O+@@@@@@oX      O+@@@@@@o",
"X      O+@@@@@@oX      O+@@@@@@oX      O+@@@@@@oX      O+@@@@@@o",
"X      O+@@@@@@oX      O+@@@@@@oX      O+@@@@@@oX      O+@@@@@@o",
" XXXXXX @++++++@ XXXXXX @++++++@ XXXXXX @++++++@ XXXXXX @++++++@",
"@oooooo@.OOOOOO @oooooo@.OOOOOO @oooooo@.OOOOOO @oooooo@.OOOOOO ",
"+@@@@@@oX      O+@@@@@@oX      O+@@@@@@oX      O+@@@@@@oX      O",
"+@@@@@@oX      O+@@@@@@oX      O+@@@@@@oX      O+@@@@@@oX      O",
"+@@@@@@oX      O+@@@@@@oX      O+@@@@@@oX      O+@@@@@@oX      O",
"+@@@@@@oX      O+@@@@@@oX      O+@@@@@@oX      O+@@@@@@oX      O",
"+@@@@@@oX      O+@@@@@@oX      O+@@@@@@oX      O+@@@@@@oX      O",
"+@@@@@@oX      O+@@@@@@oX      O+@@@@@@oX      O+@@@@@@oX      O",
"@++++++@ XXXXXX @++++++@ XXXXXX @++++++@ XXXXXX @++++++@ XXXXXX ",
" OOOOOO @oooooo@ OOOOOO @oooooo@ OOOOOO @oooooo@ OOOOOO @oooooo@",
"X      O+@@@@@@oX      O+@@@@@@oX      O+@@@@@@oX      O+@@@@@@o",
"X      O+@@@@@@oX      O+@@@@@@oX      O+@@@@@@oX      O+@@@@@@o",
"X      O+@@@@@@oX      O+@@@@@@oX      O+@@@@@@oX      O+@@@@@@o",
"X      O+@@@@@@oX      O+@@@@@@oX      O+@@@@@@oX      O+@@@@@@o",
"X      O+@@@@@@oX      O+@@@@@@oX      O+@@@@@@oX      O+@@@@@@o",
"X      O+@@@@@@oX      O+@@@@@@oX      O+@@@@@@oX      O+@@@@@@o",
"X      O+@@@@@@oX      O+@@@@@@oX      O+@@@@@@oX      O+@@@@@@o",
" XXXXXX @++++++@ XXXXXX @++++++@ XXXXXX @++++++@ XXXXXX @++++++@",
"@oooooo@.OOOOOO @oooooo@.OOOOOO @oooooo@.OOOOOO @oooooo@.OOOOOO ",
"+@@@@@@oX      O+@@@@@@oX      O+@@@@@@oX      O+@@@@@@oX      O",
"+@@@@@@oX      O+@@@@@@oX      O+@@@@@@oX      O+@@@@@@oX      O",
"+@@@@@@oX      O+@@@@@@oX      O+@@@@@@oX      O+@@@@@@oX      O",
"+@@@@@@oX      O+@@@@@@oX      O+@@@@@@oX      O+@@@@@@oX      O",
"+@@@@@@oX      O+@@@@@@oX      O+@@@@@@oX      O+@@@@@@oX      O",
"+@@@@@@oX      O+@@@@@@oX      O+@@@@@@oX      O+@@@@@@oX      O",
"@++++++@ XXXXXX @++++++@ XXXXXX @++++++@ XXXXXX @++++++@ XXXXXX ",
" OOOOOO @oooooo@ OOOOOO @oooooo@ OOOOOO @oooooo@ OOOOOO @oooooo@",
"X      O+@@@@@@oX      O+@@@@@@oX      O+@@@@@@oX      O+@@@@@@o",
"X      O+@@@@@@oX      O+@@@@@@oX      O+@@@@@@oX      O+@@@@@@o",
"X      O+@@@@@@oX      O+@@@@@@oX      O+@@@@@@oX      O+@@@@@@o",
"X      O+@@@@@@oX      O+@@@@@@oX      O+@@@@@@oX      O+@@@@@@o",
"X      O+@@@@@@oX      O+@@@@@@oX      O+@@@@@@oX      O+@@@@@@o",
"X      O+@@@@@@oX      O+@@@@@@oX      O+@@@@@@oX      O+@@@@@@o",
"X      O+@@@@@@oX      O+@@@@@@oX      O+@@@@@@oX      O+@@@@@@o",
" XXXXXX @++++++@ XXXXXX @++++++@ XXXXXX @++++++@ XXXXXX @++++++@",
"@oooooo@.OOOOOO @oooooo@.OOOOOO @oooooo@.OOOOOO @oooooo@.OOOOOO ",
"+@@@@@@oX      O+@@@@@@oX      O+@@@@@@oX      O+@@@@@@oX      O",
"+@@@@@@oX      O+@@@@@@oX      O+@@@@@@oX      O+@@@@@@oX      O",
"+@@@@@@oX      O+@@@@@@oX      O+@@@@@@oX      O+@@@@@@oX      O",
"+@@@@@@oX      O+@@@@@@oX      O+@@@@@@oX      O+@@@@@@oX      O",
"+@@@@@@oX      O+@@@@@@oX      O+@@@@@@oX      O+@@@@@@oX      O",
"+@@@@@@oX      O+@@@@@@oX      O+@@@@@@oX      O+@@@@@@oX      O",
"@++++++@ XXXXXX @++++++@ XXXXXX @++++++@ XXXXXX @++++++@ XXXXXX ",
" OOOOOO @oooooo@ OOOOOO @oooooo@ OOOOOO @oooooo@ OOOOOO @oooooo@",
"X      O+@@@@@@oX      O+@@@@@@oX      O+@@@@@@oX      O+@@@@@@o",
"X      O+@@@@@@oX      O+@@@@@@oX      O+@@@@@@oX      O+@@@@@@o",
"X      O+@@@@@@oX      O+@@@@@@oX      O+@@@@@@oX      O+@@@@@@o",
"X      O+@@@@@@oX      O+@@@@@@oX      O+@@@@@@oX      O+@@@@@@o",
"X      O+@@@@@@oX      O+@@@@@@oX      O+@@@@@@oX      O+@@@@@@o",
"X      O+@@@@@@oX      O+@@@@@@oX      O+@@@@@@oX      O+@@@@@@o",
"X      O+@@@@@@oX      O+@@@@@@oX      O+@@@@@@oX      O+@@@@@@o",
" XXXXXX @++++++@ XXXXXX @++++++@ XXXXXX @++++++@ XXXXXX @++++++@",
"@oooooo@.OOOOOO @oooooo@.OOOOOO @oooooo@.OOOOOO @oooooo@.OOOOOO ",
"+@@@@@@oX      O+@@@@@@oX      O+@@@@@@oX      O+@@@@@@oX      O",
"+@@@@@@oX      O+@@@@@@oX      O+@@@@@@oX      O+@@@@@@oX      O",
"+@@@@@@oX      O+@@@@@@oX      O+@@@@@@oX      O+@@@@@@oX      O",
"+@@@@@@oX      O+@@@@@@oX      O+@@@@@@oX      O+@@@@@@oX      O"
};
